<svg version="1.1" id="Layer_1" xmlns="http://www.w3.org/2000/svg" xmlns:xlink="http://www.w3.org/1999/xlink" x="0px" y="0px"
	 width="100%" viewBox="0 0 128 128" enable-background="new 0 0 128 128" xml:space="preserve">
<path fill="#000000" opacity="1.000000" stroke="none" 
	d="
M1.000000,56.000000 
	C1.000000,37.333332 1.000000,19.166666 1.000000,1.000000 
	C43.666668,1.000000 86.333336,1.000000 129.000000,1.000000 
	C129.000000,43.666668 129.000000,86.333336 129.000000,129.000000 
	C86.333336,129.000000 43.666668,129.000000 1.000000,129.000000 
	C1.000000,104.833336 1.000000,80.666664 1.000000,56.000000 
M86.473602,5.998662 
	C69.985428,5.998816 53.496841,6.072359 37.009201,5.978563 
	C20.388590,5.884012 5.955419,20.475632 5.989924,36.770935 
	C6.028717,55.091087 6.308663,73.418152 5.909337,91.729675 
	C5.530352,109.108398 20.028944,124.259628 38.040504,124.046623 
	C55.692081,123.837868 73.348343,124.052643 91.001846,123.954620 
	C94.250252,123.936577 97.593765,123.699089 100.724777,122.901222 
	C114.116447,119.488670 124.012672,106.812645 124.004021,93.204483 
	C123.991951,74.218063 124.115227,55.230598 123.944389,36.245708 
	C123.876343,28.683533 120.979759,22.027777 115.879677,16.383764 
	C108.232681,7.921228 98.445648,5.324971 86.473602,5.998662 
z"/>
<path fill="#64EF82" opacity="1.000000" stroke="none" 
	d="
M86.967705,5.998663 
	C98.445648,5.324971 108.232681,7.921228 115.879677,16.383764 
	C120.979759,22.027777 123.876343,28.683533 123.944389,36.245708 
	C124.115227,55.230598 123.991951,74.218063 124.004021,93.204483 
	C124.012672,106.812645 114.116447,119.488670 100.724777,122.901222 
	C97.593765,123.699089 94.250252,123.936577 91.001846,123.954620 
	C73.348343,124.052643 55.692081,123.837868 38.040504,124.046623 
	C20.028944,124.259628 5.530352,109.108398 5.909337,91.729675 
	C6.308663,73.418152 6.028717,55.091087 5.989924,36.770935 
	C5.955419,20.475632 20.388590,5.884012 37.009201,5.978563 
	C53.496841,6.072359 69.985428,5.998816 86.967705,5.998663 
M94.786316,50.115623 
	C93.639160,42.804066 87.897171,42.686340 82.462715,42.908390 
	C81.134285,29.687197 77.153625,23.986998 68.574005,23.666456 
	C65.465019,23.550303 61.929535,24.629087 59.215771,26.227407 
	C53.074234,29.844578 52.422112,36.318546 52.799999,42.616943 
	C42.457844,43.596100 40.549168,44.940861 40.022575,51.307827 
	C38.925518,64.572327 37.821449,77.836533 36.808285,91.107582 
	C36.021812,101.409225 40.619179,106.490013 50.872017,106.580475 
	C61.856747,106.677399 72.843483,106.665848 83.828453,106.583481 
	C94.149651,106.506096 98.745018,101.679062 98.053909,91.271812 
	C97.161049,77.826332 95.948692,64.402061 94.786316,50.115623 
z"/>
<path fill="#046219" opacity="1.000000" stroke="none" 
	d="
M94.830116,50.542141 
	C95.948692,64.402061 97.161049,77.826332 98.053909,91.271812 
	C98.745018,101.679062 94.149651,106.506096 83.828453,106.583481 
	C72.843483,106.665848 61.856747,106.677399 50.872017,106.580475 
	C40.619179,106.490013 36.021812,101.409225 36.808285,91.107582 
	C37.821449,77.836533 38.925518,64.572327 40.022575,51.307827 
	C40.549168,44.940861 42.457844,43.596100 52.799999,42.616943 
	C52.422112,36.318546 53.074234,29.844578 59.215771,26.227407 
	C61.929535,24.629087 65.465019,23.550303 68.574005,23.666456 
	C77.153625,23.986998 81.134285,29.687197 82.462715,42.908390 
	C87.897171,42.686340 93.639160,42.804066 94.830116,50.542141 
M50.231003,86.384659 
	C49.971153,88.162346 49.706165,89.939301 49.453072,91.717949 
	C49.248817,93.153381 49.058926,94.590858 48.862663,96.027428 
	C50.413944,95.559357 52.343037,95.518951 53.446579,94.544052 
	C56.936756,91.460709 59.981636,87.873825 63.467213,84.784615 
	C65.760918,82.751740 68.517670,81.241325 71.067070,79.496964 
	C69.437271,82.046761 67.987053,84.737709 66.125900,87.105667 
	C64.353485,89.360725 62.152149,91.278679 59.739109,93.755722 
	C76.483437,95.406769 89.624542,78.893379 83.895218,64.344704 
	C83.143272,62.435253 80.059967,60.463940 77.886032,60.249577 
	C60.602715,58.545322 50.359348,68.063156 50.231003,86.384659 
M72.326874,42.996387 
	C73.783211,42.904346 75.239548,42.812305 76.760414,42.716187 
	C77.638252,37.334080 77.231323,32.697083 72.293495,29.762802 
	C68.827942,27.703421 65.248276,27.876524 61.935078,30.168299 
	C57.414326,33.295361 57.337231,37.769199 58.211464,42.996716 
	C62.760605,42.996716 67.062691,42.996716 72.326874,42.996387 
M77.700394,49.177628 
	C78.266716,50.741402 78.833038,52.305172 79.399361,53.868946 
	C80.275902,52.926842 81.818344,52.036926 81.897079,51.032295 
	C82.089882,48.572300 80.789841,47.337315 77.700394,49.177628 
z"/>
<path fill="#61EB7F" opacity="1.000000" stroke="none" 
	d="
M50.231438,85.933990 
	C50.359348,68.063156 60.602715,58.545322 77.886032,60.249577 
	C80.059967,60.463940 83.143272,62.435253 83.895218,64.344704 
	C89.624542,78.893379 76.483437,95.406769 59.739109,93.755722 
	C62.152149,91.278679 64.353485,89.360725 66.125900,87.105667 
	C67.987053,84.737709 69.437271,82.046761 71.067070,79.496964 
	C68.517670,81.241325 65.760918,82.751740 63.467213,84.784615 
	C59.981636,87.873825 56.936756,91.460709 53.446579,94.544052 
	C52.343037,95.518951 50.413944,95.559357 48.862663,96.027428 
	C49.058926,94.590858 49.248817,93.153381 49.453072,91.717949 
	C49.706165,89.939301 49.971153,88.162346 50.231438,85.933990 
z"/>
<path fill="#62EC80" opacity="1.000000" stroke="none" 
	d="
M71.845825,42.996552 
	C67.062691,42.996716 62.760605,42.996716 58.211464,42.996716 
	C57.337231,37.769199 57.414326,33.295361 61.935078,30.168299 
	C65.248276,27.876524 68.827942,27.703421 72.293495,29.762802 
	C77.231323,32.697083 77.638252,37.334080 76.760414,42.716187 
	C75.239548,42.812305 73.783211,42.904346 71.845825,42.996552 
z"/>
<path fill="#5BE278" opacity="1.000000" stroke="none" 
	d="
M77.943794,48.882038 
	C80.789841,47.337315 82.089882,48.572300 81.897079,51.032295 
	C81.818344,52.036926 80.275902,52.926842 79.399361,53.868946 
	C78.833038,52.305172 78.266716,50.741402 77.943794,48.882038 
z"/>
</svg>